/* XPM */
static const char *codec_jpeg2000[] = {
/* columns rows colors chars-per-pixel */
"16 16 12 1",
"  c gray27",
". c #4C4C4C",
"X c #803F00",
"o c #CF62EA",
"O c #AEAEAE",
"+ c gray69",
"@ c #B1B1B1",
"# c #C8C8C8",
"$ c #DDDDDD",
"% c #F3F3F3",
"& c gray100",
"* c None",
/* pixels */
"..........+*****",
".########.$O****",
".#&&&&&&#.%$+***",
".#&&&&&&#....***",
".#&&&&&&####.***",
".               ",
".oooooooooooooo ",
".ooo&o&&&o&&&oo ",
".ooo&o&o&o&o&oo ",
".ooo&o&&&ooo&oo ",
".o&o&o&oooo&ooo ",
".o&&oo&ooo&&&oo ",
".oooooooooooooo ",
".               ",
".###########.***",
"*............***"
};
