/* XPM */
static const char * codec_neo[] = {
"16 16 11 1",
" 	c None",
".	c #4E4E4E",
"+	c #B2B2B2",
"@	c #CACACA",
"#	c #DEDEDE",
"$	c #AEAEAE",
"%	c #FEFEFE",
"&	c #F2F2F2",
"*	c #464646",
"=	c #0DFF2F",
"-	c #000000",
"..........+     ",
".@@@@@@@@.#$    ",
".@%%%%%%@.&#+   ",
".@%%%%%%@....   ",
".@%%%%%%@@@@.   ",
".***************",
".==============*",
".=--==---=---==*",
".=-=-=-===-=-==*",
".=-=-=--==-=-==*",
".=-=-=-===-=-==*",
".=-=-=---=---==*",
".==============*",
".***************",
".@@@@@@@@@@@.   ",
" ............   "};
