/* XPM */
static const char *codec_pcx[] = {
/* columns rows colors chars-per-pixel */
"16 16 12 1",
"  c gray27",
". c #4C4C4C",
"X c #CF0008",
"o c #808080",
"O c #AEAEAE",
"+ c gray69",
"@ c #B1B1B1",
"# c #C8C8C8",
"$ c #DDDDDD",
"% c #F3F3F3",
"& c gray100",
"* c None",
/* pixels */
"..........+*****",
".########.$O****",
".#&&&&&&#.%$+***",
".#&&&&&&#....***",
".#&&&&&&####.***",
".               ",
".oooooooooooooo ",
".o&&&oo&&&o&o&o ",
".o&oo&o&o&o&o&o ",
".o&&&oo&oooo&oo ",
".o&oooo&o&o&o&o ",
".o&oooo&&&o&o&o ",
".oooooooooooooo ",
".               ",
".###########.***",
"*............***"
};
