/* XPM */
static const char * codec_pict[] = {
"16 16 11 1",
" 	c None",
".	c #4E4E4E",
"+	c #B2B2B2",
"@	c #CACACA",
"#	c #DEDEDE",
"$	c #AEAEAE",
"%	c #FEFEFE",
"&	c #F2F2F2",
"*	c #464646",
"=	c #33C8FF",
"-	c #000000",
"..........+     ",
".@@@@@@@@.#$    ",
".@%%%%%%@.&#+   ",
".@%%%%%%@....   ",
".@%%%%%%@@@@.   ",
".***************",
".==============*",
".=---=-=--=---=*",
".=-=-=-=-===-==*",
".=---=-=-===-==*",
".=-===-=-===-==*",
".=-===-=--==-==*",
".==============*",
".***************",
".@@@@@@@@@@@.   ",
" ............   "};
