/* XPM */
static const char *codec_psd[] = {
/* columns rows colors chars-per-pixel */
"16 16 12 1",
"  c #464646",
". c #4E4E4E",
"X c #5A5A5A",
"o c #CF0008",
"O c #FEFE02",
"+ c #AEAEAE",
"@ c #B2B2B2",
"# c #CACACA",
"$ c gray87",
"% c gray95",
"& c #FEFEFE",
"* c None",
/* pixels */
"..........@*****",
" ######## $+****",
" #&&&&&&# %$@***",
" #&&&&&&#... ***",
" #&&&&&&####.***",
".               ",
" OOOOOOOOOOOOOO ",
".XXXOOOXXXOXXXO ",
" XOOXOXOOOOXOOX ",
".XXXOOOXXOOXOOX ",
".XOOOOOOOXOXOOX ",
" XOOOOXXXOOXXXO ",
".OOOOOOOOOOOOOO ",
"                ",
".########### ***",
"*.  .  .  . .***"
};
