/* XPM */
static const char *codec_ttf[] = {
/* columns rows colors chars-per-pixel */
"16 16 12 1",
"  c black",
". c gray27",
"X c #4C4C4C",
"o c #E94A8D",
"O c #AEAEAE",
"+ c gray69",
"@ c #B1B1B1",
"# c #C8C8C8",
"$ c #DDDDDD",
"% c #F3F3F3",
"& c gray100",
"* c None",
/* pixels */
"XXXXXXXXXX+*****",
"X########X$O****",
"X#&&&&&&#X%$+***",
"X#&&&&&&#XXXX***",
"X#&&&&&&####X***",
"X...............",
"Xoooooooooooooo.",
"Xo&&&o&&&o&&&&o.",
"Xoo&ooo&oo&oooo.",
"Xoo&ooo&oo&&&oo.",
"Xoo&ooo&oo&oooo.",
"Xoo&ooo&oo&oooo.",
"Xoooooooooooooo.",
"X...............",
"X###########X***",
"*XXXXXXXXXXXX***"
};
