/* XPM */
static const char *codec_mdl[] = {
/* columns rows colors chars-per-pixel */
"16 16 12 1",
"  c gray27",
". c #4C4C4C",
"X c #CF0008",
"o c #950AD1",
"O c #AEAEAE",
"+ c gray69",
"@ c #B1B1B1",
"# c #C8C8C8",
"$ c #DDDDDD",
"% c #F3F3F3",
"& c gray100",
"* c None",
/* pixels */
"..........+*****",
".########.$O****",
".#&&&&&&#.%$+***",
".#&&&&&&#....***",
".#&&&&&&####.***",
".               ",
".oooooooooooooo ",
".o&oo&o&&&o&ooo ",
".o&&&&o&o&o&ooo ",
".o&oo&o&o&o&ooo ",
".o&oo&o&o&o&ooo ",
".o&oo&o&&&o&&&o ",
".oooooooooooooo ",
".               ",
".###########.***",
"*............***"
};
