/* XPM */
static const char *codec_xcur[] = {
/* columns rows colors chars-per-pixel */
"16 16 12 1",
"  c #020202",
". c #464646",
"X c #4E4E4E",
"o c #CF0008",
"O c #FEFE02",
"+ c #AEAEAE",
"@ c #B2B2B2",
"# c #CACACA",
"$ c gray87",
"% c gray95",
"& c #FEFEFE",
"* c None",
/* pixels */
"XXXXXXXXXX@*****",
"X########X$+****",
"X#&&&&&&#.%$@***",
".#&&&&&&#XXXX***",
"X#&&&&&&####X***",
"................",
"XOOOOOOOOOOOOOO.",
"X O OOOOOOOOOOO.",
"X O OOOOOOOOOOO.",
"XO OOO  O O O  .",
"X O O OOO O O O.",
"X O OO  OO  O O.",
"XOOOOOOOOOOOOOO.",
"X...............",
"X###########.***",
"*X.........XX***"
};
