/* XPM */
static const char * codec_psp[] = {
"16 16 11 1",
" 	c None",
".	c #4C4C4C",
"+	c #B0B0B0",
"@	c #C8C8C8",
"#	c #DDDDDD",
"$	c #AEAEAE",
"%	c #FFFFFF",
"&	c #F3F3F3",
"*	c #454545",
"=	c #4CC4F0",
"-	c #000000",
"..........+     ",
".@@@@@@@@.#$    ",
".@%%%%%%@.&#+   ",
".@%%%%%%@....   ",
".@%%%%%%@@@@.   ",
".***************",
".==============*",
".=---=---=---==*",
".=-=-=-===-=-==*",
".=---=---=---==*",
".=-=====-=-====*",
".=-===---=-====*",
".==============*",
".***************",
".@@@@@@@@@@@.   ",
" ............   "};
