/* XPM */
static const char *codec_xwd[] = {
/* columns rows colors chars-per-pixel */
"16 16 12 1",
"  c #000028",
". c gray27",
"X c #4C4C4C",
"o c #890C53",
"O c #AEAEAE",
"+ c gray69",
"@ c #B1B1B1",
"# c #C8C8C8",
"$ c #DDDDDD",
"% c #F3F3F3",
"& c gray100",
"* c None",
/* pixels */
"XXXXXXXXXX+*****",
"X########X$O****",
"X#&&&&&&#X%$+***",
"X#&&&&&&#XXXX***",
"X#&&&&&&####X***",
"X...............",
"Xoooooooooooooo.",
"X&o&o&ooo&o&&&o.",
"X&o&o&o&o&o&oo&.",
"Xo&oo&o&o&o&oo&.",
"X&o&oo&o&oo&oo&.",
"X&o&oo&o&oo&&&o.",
"Xoooooooooooooo.",
"X...............",
"X###########X***",
"*XXXXXXXXXXXX***"
};
