/* XPM */
static const char *codec_dxf[] = {
"16 16 17 1",
" 	c None",
".	c #4E4E4E",
"+	c #B2B2B2",
"@	c #CACACA",
"#	c #DEDEDE",
"$	c #AEAEAE",
"%	c #FEFEFE",
"&	c #F2F2F2",
"*	c #464646",
"=	c #C69DC1",
"-	c #C69CC1",
";	c #C69BC1",
">	c #C69AC1",
",	c #C699C1",
"'	c #C698C1",
")	c #C698C2",
"!	c #FFFFFF",
"..........+     ",
".@@@@@@@@.#$    ",
".@%%%%%%@.&#+   ",
".@%%%%%%@....   ",
".@%%%%%%@@@@.   ",
".***************",
".=--;;>>,''))))*",
".)!!!))!)!)!!!)*",
".)!)!!)!)!)!)))*",
".)!))!))!))!!!)*",
".)!)!!)!)!)!)))*",
".)!!!))!)!)!)))*",
".))))))))))))))*",
".***************",
".@@@@@@@@@@@.   ",
" ............   "};
