/* XPM */
static const char *codec_xbm[] = {
/* columns rows colors chars-per-pixel */
"16 16 12 1",
"  c #464646",
". c #4E4E4E",
"X c #0202CA",
"o c #CF0008",
"O c #AEAEAE",
"+ c #B2B2B2",
"@ c #CACACA",
"# c gray87",
"$ c #FEFECA",
"% c gray95",
"& c #FEFEFE",
"* c None",
/* pixels */
"..........+*****",
" @@@@@@@@ #O****",
" @&&&&&&@ %#+***",
" @&&&&&&@... ***",
" @&&&&&&@@@@.***",
".               ",
" XXXXXXXXXXXXXX ",
".$X$X$$$XX$XXX$ ",
" $X$X$XX$X$$X$$ ",
".X$XX$$$XX$X$X$ ",
" $X$X$XX$X$XXX$ ",
".$X$X$$$XX$XXX$ ",
".XXXXXXXXXXXXXX ",
"                ",
" @@@@@@@@@@@ ***",
"*           .***"
};
