/* XPM */
static const char *codec_pxr[] = {
/* columns rows colors chars-per-pixel */
"16 16 12 1",
"  c black",
". c gray27",
"X c #4C4C4C",
"o c #7D1AC2",
"O c #AEAEAE",
"+ c gray69",
"@ c #B1B1B1",
"# c #C8C8C8",
"$ c #DDDDDD",
"% c #F3F3F3",
"& c gray100",
"* c None",
/* pixels */
"XXXXXXXXXX+*****",
"X########X$O****",
"X#&&&&&&#X%$+***",
"X#&&&&&&#XXXX***",
"X#&&&&&&####X***",
"X...............",
"Xoooooooooooooo.",
"Xo&&&o&o&o&&&oo.",
"Xo&o&o&o&o&o&oo.",
"Xo&&&oo&oo&&&oo.",
"Xo&ooo&o&o&o&oo.",
"Xo&ooo&o&o&o&oo.",
"Xoooooooooooooo.",
"X...............",
"X###########X***",
"*XXXXXXXXXXXX***"
};
