/* XPM */
static const char *codec_rawrgb[] = {
/* columns rows colors chars-per-pixel */
"16 16 12 1",
"  c #464646",
". c #4E4E4E",
"X c #566A8E",
"o c #CF0008",
"O c #AEAEAE",
"+ c #B2B2B2",
"@ c #CACACA",
"# c gray87",
"$ c #EEEEFE",
"% c gray95",
"& c #FEFEFE",
"* c None",
/* pixels */
"..........+*****",
" @@@@@@@@ #O****",
" @&&&&&&@ %#+***",
" @&&&&&&@... ***",
" @&&&&&&@@@@.***",
".               ",
" XXXXXXXXXXXXXX ",
".$$$XX$$$X$XXX$ ",
" $XX$X#X$X$X$X$ ",
".$#$XX$X$X#X$X$ ",
".$XX$X$$$XX$X#X ",
" $XX$X$X$XX$X$X ",
".XXXXXXXXXXXXXX ",
"                ",
".@@@@@@@@@@@ ***",
"*          ..***"
};
