/* XPM */
static const char *codec_djvu[] = {
"16 16 12 1",
" 	c None",
".	c #4E4E4E",
"+	c #B2B2B2",
"@	c #CACACA",
"#	c #DEDEDE",
"$	c #AEAEAE",
"%	c #FEFEFE",
"&	c #F2F2F2",
"*	c #464646",
"=	c #35C3E7",
"-	c #FFFFFF",
";	c #D9F3FA",
"..........+     ",
".@@@@@@@@.#$    ",
".@%%%%%%@.&#+   ",
".@%%%%%%@....   ",
".@%%%%%%@@@@.   ",
".***************",
".==============*",
".=---==---=-=-=*",
".=-=--===-=-=-=*",
".=-==-===-=-=-=*",
".=-=--===-=-=-=*",
".=---==--;=;-;=*",
".==============*",
".***************",
".@@@@@@@@@@@.   ",
" ............   "};
