/* XPM */
static const char *codec_fli[] = {
/* columns rows colors chars-per-pixel */
"16 16 12 1",
"  c gray27",
". c #4C4C4C",
"X c #CF0008",
"o c #AA0889",
"O c #AEAEAE",
"+ c gray69",
"@ c #B1B1B1",
"# c #C8C8C8",
"$ c #DDDDDD",
"% c #F3F3F3",
"& c gray100",
"* c None",
/* pixels */
"..........+*****",
".########.$O****",
".#&&&&&&#.%$+***",
".#&&&&&&#....***",
".#&&&&&&####.***",
".               ",
".oooooooooooooo ",
".o&&&&o&ooo&&&o ",
".o&oooo&oooo&oo ",
".o&&&oo&oooo&oo ",
".o&oooo&oooo&oo ",
".o&oooo&&&o&&&o ",
".oooooooooooooo ",
".               ",
".###########.***",
"*............***"
};
