/* XPM */
static const char *codec_msp[] = {
/* columns rows colors chars-per-pixel */
"16 16 12 1",
"  c #000028",
". c gray27",
"X c #4C4C4C",
"o c #E62E8B",
"O c #AEAEAE",
"+ c gray69",
"@ c #B1B1B1",
"# c #C8C8C8",
"$ c #DDDDDD",
"% c #F3F3F3",
"& c gray100",
"* c None",
/* pixels */
"XXXXXXXXXX+*****",
"X########X$O****",
"X#&&&&&&#X%$+***",
"X#&&&&&&#XXXX***",
"X#&&&&&&####X***",
"X...............",
"Xoooooooooooooo.",
"Xo&oo&o&&&o&&&o.",
"Xo&&&&o&ooo&o&o.",
"Xo&oo&o&&&o&&&o.",
"Xo&oo&ooo&o&ooo.",
"Xo&oo&o&&&o&ooo.",
"Xoooooooooooooo.",
"X...............",
"X###########X***",
"*XXXXXXXXXXXX***"
};
